# xmcd
#
# Track frame offsets: 
#        150
#        18866
#        31071
#        50197
#        71774
#        104639
#        125140
#        150391
#        165951
#        180492
#        206885
#
# Disc length: 3066 seconds
#
# Revision: 0
# Processed by: cddbd v1.5.2PL0 Copyright (c) Steve Scherf et al.
# Submitted via: ExactAudioCopy v0.99pb5
#
DISCID=930bf80b
DTITLE=Scarecrow - Devil and Crossroads
DYEAR=2013
DGENRE=Rap
TTITLE0=Evil and Crossroads
TTITLE1=Morning Rooster
TTITLE2=My Lowd
TTITLE3=Dans Mes Poches
TTITLE4=Boy
TTITLE5=Neant
TTITLE6=Ain't Got No Choice (But Buying You)
TTITLE7=All, Now
TTITLE8=B.M.F.
TTITLE9=A Kind Of Sign
TTITLE10=Break The Doors
EXTD=
EXTT0=
EXTT1=
EXTT2=
EXTT3=
EXTT4=
EXTT5=
EXTT6=
EXTT7=
EXTT8=
EXTT9=
EXTT10=
PLAYORDER=
